<svg width="20" height="21" viewBox="0 0 20 21" fill="none" xmlns="http://www.w3.org/2000/svg">
<path d="M6.725 10.9525L13.6912 17.59C13.8075 17.7008 13.9619 17.7626 14.1225 17.7626C14.2831 17.7626 14.4375 17.7008 14.5537 17.59L14.5612 17.5825C14.6178 17.5287 14.6628 17.4641 14.6936 17.3924C14.7244 17.3207 14.7402 17.2436 14.7402 17.1656C14.7402 17.0876 14.7244 17.0104 14.6936 16.9387C14.6628 16.8671 14.6178 16.8024 14.5612 16.7487L8.00125 10.4987L14.5612 4.2512C14.6178 4.19749 14.6628 4.13283 14.6936 4.06116C14.7244 3.9895 14.7402 3.91232 14.7402 3.83433C14.7402 3.75634 14.7244 3.67916 14.6936 3.6075C14.6628 3.53583 14.6178 3.47117 14.5612 3.41745L14.5537 3.40995C14.4375 3.29915 14.2831 3.23733 14.1225 3.23733C13.9619 3.23733 13.8075 3.29915 13.6912 3.40995L6.725 10.0475C6.66373 10.1058 6.61496 10.176 6.58163 10.2538C6.54831 10.3316 6.53112 10.4153 6.53112 10.5C6.53112 10.5846 6.54831 10.6683 6.58163 10.7461C6.61496 10.8239 6.66373 10.8941 6.725 10.9525Z" fill="#7A7A7A"/>
</svg>
