<svg width="23" height="23" viewBox="0 0 23 23" fill="none" xmlns="http://www.w3.org/2000/svg">
<path d="M4.72648 3.28564C3.90951 3.28564 3.12601 3.61018 2.54833 4.18786C1.97065 4.76554 1.64612 5.54904 1.64612 6.366V15.8124C1.64612 16.6294 1.97065 17.4129 2.54833 17.9906C3.12601 18.5683 3.90951 18.8928 4.72648 18.8928H18.2768C19.0937 18.8928 19.8772 18.5683 20.4549 17.9906C21.0326 17.4129 21.3571 16.6294 21.3571 15.8124V6.366C21.3571 5.54904 21.0326 4.76554 20.4549 4.18786C19.8772 3.61018 19.0937 3.28564 18.2768 3.28564H4.72648ZM2.87826 6.366C2.87826 5.87582 3.07298 5.40572 3.41959 5.05912C3.7662 4.71251 4.2363 4.51779 4.72648 4.51779H18.2768C18.7669 4.51779 19.237 4.71251 19.5836 5.05912C19.9303 5.40572 20.125 5.87582 20.125 6.366V7.00589L11.5 11.4235L2.87826 7.00754V6.366ZM2.87826 8.39247L11.219 12.6639C11.306 12.7084 11.4023 12.7317 11.5 12.7317C11.5977 12.7317 11.694 12.7084 11.7809 12.6639L20.125 8.39082V15.8133C20.125 16.3034 19.9303 16.7735 19.5836 17.1201C19.237 17.4667 18.7669 17.6615 18.2768 17.6615H4.7273C4.23712 17.6615 3.76702 17.4667 3.42041 17.1201C3.0738 16.7735 2.87908 16.3034 2.87908 15.8133L2.87826 8.39247Z" fill="#86928B"/>
</svg>
